# xmcd
#
# Track frame offsets: 
#        182
#        13685
#        28895
#        42070
#        53822
#        70370
#        79887
#        90722
#        102745
#        120820
#        137612
#
# Disc length: 2070 seconds
#
# Revision: 5
# Processed by: cddbd v1.5.2PL0 Copyright (c) Steve Scherf et al.
# Submitted via: ExactAudioCopy v0.99pb5
#
DISCID=8e08140b
DTITLE=Anita O'Day - Anita Sings The Most  with the Oscar Peterson Qua
DTITLE=rtet 
DYEAR=1956
DGENRE=Jazz
TTITLE0=S'Wonderful -- They Can't Take That Away From Me
TTITLE1=Tenderly
TTITLE2=Old Devil Moon
TTITLE3=Love Me Or Leave Me
TTITLE4=We'll Be Together Again
TTITLE5=Stella By Starlight
TTITLE6=Taking A Chance On Love
TTITLE7=Them There Eyes
TTITLE8=I've Got The World On A String
TTITLE9=You Turned The Tables On Me
TTITLE10=Bewitched, Bothered And Bewildered
EXTD=\nYEAR: 1956  ID3G:   8
EXTT0=
EXTT1=
EXTT2=
EXTT3=
EXTT4=
EXTT5=
EXTT6=
EXTT7=
EXTT8=
EXTT9=
EXTT10=
PLAYORDER=
